# This file uses centimeters as units for non-parametric coordinates.

mtllib Ivy01_low.mtl
g default
v 21.734057 0.781214 19.393570
v 21.805861 0.862892 19.307068
v 21.894614 0.862892 19.200150
v 21.966418 0.781214 19.113648
v 21.993845 0.649058 19.080605
v 21.966418 0.516901 19.113648
v 21.894614 0.435224 19.200150
v 21.805861 0.435224 19.307068
v 21.734057 0.516901 19.393570
v 21.706629 0.649058 19.426613
v 20.115652 0.762598 19.038399
v 20.133646 0.844276 18.927430
v 20.155890 0.844276 18.790268
v 20.173884 0.762598 18.679299
v 20.180758 0.630441 18.636910
v 20.173884 0.498285 18.679299
v 20.155890 0.416607 18.790268
v 20.133646 0.416607 18.927430
v 20.115652 0.498285 19.038399
v 20.108778 0.630441 19.080788
v 17.988405 0.799864 19.067536
v 18.006403 0.881541 18.956566
v 18.028643 0.881541 18.819397
v 18.046641 0.799864 18.708428
v 18.053511 0.667707 18.666047
v 18.046641 0.535550 18.708428
v 18.028643 0.453873 18.819397
v 18.006403 0.453873 18.956566
v 17.988405 0.535550 19.067536
v 17.981531 0.667707 19.109925
v 16.298693 0.811145 19.096100
v 16.316687 0.892822 18.985123
v 16.338930 0.892822 18.847962
v 16.356924 0.811145 18.736992
v 16.363798 0.678988 18.694603
v 16.356924 0.546831 18.736992
v 16.338930 0.465154 18.847962
v 16.316687 0.465154 18.985123
v 16.298693 0.546832 19.096100
v 16.291819 0.678988 19.138482
v 15.074671 0.831471 18.852974
v 15.092665 0.913148 18.742005
v 15.114908 0.913148 18.604836
v 15.132902 0.831471 18.493866
v 15.139776 0.699314 18.451477
v 15.132902 0.567157 18.493866
v 15.114908 0.485480 18.604836
v 15.092665 0.485480 18.742005
v 15.074671 0.567157 18.852974
v 15.067797 0.699314 18.895356
v 13.204153 0.835227 18.359505
v 13.222151 0.916904 18.248536
v 13.244391 0.916904 18.111367
v 13.262388 0.835227 18.000397
v 13.269259 0.703070 17.958008
v 13.262388 0.570913 18.000397
v 13.244391 0.489236 18.111367
v 13.222151 0.489236 18.248536
v 13.204153 0.570913 18.359505
v 13.197283 0.703070 18.401886
v 11.469412 0.835227 17.849343
v 11.487406 0.916904 17.738373
v 11.509650 0.916904 17.601212
v 11.527643 0.835227 17.490242
v 11.534518 0.703070 17.447854
v 11.527643 0.570913 17.490242
v 11.509650 0.489236 17.601212
v 11.487406 0.489236 17.738373
v 11.469412 0.570913 17.849343
v 11.462538 0.703070 17.891732
v 8.549616 0.835227 16.933037
v 8.567610 0.916904 16.822068
v 8.589854 0.916904 16.684899
v 8.607847 0.835227 16.573929
v 8.614722 0.703070 16.531548
v 8.607847 0.570913 16.573929
v 8.589854 0.489236 16.684899
v 8.567610 0.489236 16.822068
v 8.549616 0.570913 16.933037
v 8.542742 0.703070 16.975426
v 6.725798 0.835227 16.861603
v 6.743792 0.916904 16.750634
v 6.766035 0.916904 16.613465
v 6.784029 0.835227 16.502495
v 6.790903 0.703070 16.460106
v 6.784029 0.570913 16.502495
v 6.766035 0.489236 16.613465
v 6.743792 0.489236 16.750634
v 6.725798 0.570913 16.861603
v 6.718924 0.703070 16.903984
v 21.850237 0.649058 19.253609
v 6.754912 0.703070 16.682045
v -21.304117 0.976197 37.946579
v 23.073950 0.976197 37.946579
v -21.304117 0.976197 1.127537
v 23.073950 0.976197 1.127537
vt 0.152684 0.018303
vt 0.157304 0.016450
vt 0.157071 0.077292
vt 0.152239 0.077555
vt 0.161752 0.014264
vt 0.161815 0.076974
vt 0.166394 0.012579
vt 0.166494 0.076723
vt 0.171306 0.011991
vt 0.171150 0.076614
vt 0.176201 0.012703
vt 0.175802 0.076674
vt 0.180808 0.014477
vt 0.180466 0.076888
vt 0.185238 0.016694
vt 0.185175 0.077193
vt 0.189865 0.018521
vt 0.189968 0.077468
vt 0.194778 0.019212
vt 0.194839 0.077589
vt 0.199669 0.018468
vt 0.199725 0.077497
vt 0.156958 0.150819
vt 0.152213 0.151460
vt 0.161672 0.149982
vt 0.166406 0.149270
vt 0.171183 0.148952
vt 0.175970 0.149143
vt 0.180724 0.149771
vt 0.185451 0.150594
vt 0.190197 0.151294
vt 0.194980 0.151600
vt 0.199764 0.151396
vt 0.156634 0.208775
vt 0.151923 0.209076
vt 0.161410 0.208364
vt 0.166281 0.207998
vt 0.171225 0.207816
vt 0.176167 0.207886
vt 0.181031 0.208180
vt 0.185795 0.208578
vt 0.190492 0.208925
vt 0.195166 0.209088
vt 0.199849 0.209006
vt 0.156925 0.251116
vt 0.152210 0.250819
vt 0.161660 0.251457
vt 0.166428 0.251715
vt 0.171225 0.251791
vt 0.176027 0.251660
vt 0.180810 0.251375
vt 0.185566 0.251049
vt 0.190302 0.250811
vt 0.195025 0.250752
vt 0.199740 0.250896
vt 0.156879 0.317489
vt 0.152130 0.317060
vt 0.161627 0.318018
vt 0.166394 0.318444
vt 0.171184 0.318604
vt 0.175974 0.318437
vt 0.180742 0.318007
vt 0.185491 0.317480
vt 0.190241 0.317058
vt 0.195001 0.316902
vt 0.199759 0.317070
vt 0.156870 0.379680
vt 0.152107 0.379153
vt 0.161619 0.380330
vt 0.166388 0.380855
vt 0.171182 0.381056
vt 0.175976 0.380859
vt 0.180744 0.380338
vt 0.185493 0.379691
vt 0.190253 0.379167
vt 0.195036 0.378968
vt 0.199820 0.379171
vt 0.157274 0.485004
vt 0.152513 0.484835
vt 0.161959 0.485214
vt 0.166594 0.485384
vt 0.171216 0.485449
vt 0.175837 0.485388
vt 0.180473 0.485222
vt 0.185158 0.485016
vt 0.189921 0.484851
vt 0.194744 0.484790
vt 0.199562 0.484856
vt 0.156736 0.547955
vt 0.151916 0.548426
vt 0.161539 0.547382
vt 0.166349 0.546924
vt 0.171174 0.546745
vt 0.175997 0.546902
vt 0.180801 0.547339
vt 0.185593 0.547889
vt 0.190398 0.548337
vt 0.195221 0.548501
vt 0.200046 0.548314
vt 0.300320 0.129232
vt 0.315215 0.140054
vt 0.291114 0.157565
vt 0.281909 0.129232
vt 0.267013 0.140054
vt 0.261324 0.157565
vt 0.267013 0.175075
vt 0.281909 0.185897
vt 0.300320 0.185897
vt 0.315215 0.175075
vt 0.320905 0.157565
vt 0.325426 0.279493
vt 0.310531 0.290315
vt 0.301325 0.261983
vt 0.292119 0.290315
vt 0.277224 0.279493
vt 0.271534 0.261983
vt 0.277224 0.244472
vt 0.292119 0.233650
vt 0.310531 0.233650
vt 0.325426 0.244472
vt 0.331116 0.261983
vt 0.000000 0.083307
vt 1.000000 0.083307
vt 1.000000 0.912975
vt 0.000000 0.912975
vn -0.141201 0.793391 0.592109
vn -0.141201 0.793391 0.592109
vn -0.059688 0.801108 0.595537
vn -0.059688 0.801108 0.595537
vn -0.009875 0.999941 -0.004491
vn -0.009875 0.999941 -0.004491
vn 0.003840 0.999992 -0.000822
vn 0.003840 0.999992 -0.000822
vn 0.133847 0.792633 -0.594826
vn 0.133847 0.792633 -0.594826
vn 0.070072 0.800881 -0.594709
vn 0.070072 0.800881 -0.594709
vn 0.223263 0.294184 -0.929306
vn 0.223263 0.294184 -0.929306
vn 0.108516 0.301647 -0.947224
vn 0.108516 0.301647 -0.947224
vn 0.228977 -0.294500 -0.927814
vn 0.228977 -0.294500 -0.927814
vn 0.106124 -0.301833 -0.947436
vn 0.106124 -0.301833 -0.947436
vn 0.149211 -0.794162 -0.589104
vn 0.149211 -0.794162 -0.589104
vn 0.063730 -0.801766 -0.594230
vn 0.063730 -0.801766 -0.594230
vn 0.009875 -0.999941 0.004491
vn 0.009875 -0.999941 0.004491
vn -0.003840 -0.999992 0.000822
vn -0.003840 -0.999992 0.000822
vn -0.124622 -0.791614 0.598178
vn -0.124622 -0.791614 0.598178
vn -0.065429 -0.800148 0.596223
vn -0.065429 -0.800148 0.596223
vn -0.200388 -0.292817 0.934935
vn -0.200388 -0.292817 0.934935
vn -0.096875 -0.300581 0.948824
vn -0.096875 -0.300581 0.948824
vn -0.206831 0.293218 0.933405
vn -0.206831 0.293218 0.933405
vn -0.094836 0.300791 0.948963
vn -0.094836 0.300791 0.948963
vn -0.059688 0.801108 0.595537
vn -0.059688 0.801108 0.595537
vn 0.018820 0.803770 0.594643
vn 0.018820 0.803770 0.594643
vn 0.003840 0.999992 -0.000822
vn 0.003840 0.999992 -0.000822
vn 0.012125 0.999925 0.001966
vn 0.012125 0.999925 0.001966
vn 0.070072 0.800881 -0.594709
vn 0.070072 0.800881 -0.594709
vn 0.000677 0.805419 -0.592705
vn 0.000677 0.805419 -0.592705
vn 0.108516 0.301647 -0.947224
vn 0.108516 0.301647 -0.947224
vn -0.010880 0.304865 -0.952333
vn -0.010880 0.304865 -0.952333
vn 0.106124 -0.301833 -0.947436
vn 0.106124 -0.301833 -0.947436
vn -0.018251 -0.304484 -0.952343
vn -0.018251 -0.304484 -0.952343
vn 0.063730 -0.801766 -0.594230
vn 0.063730 -0.801766 -0.594230
vn -0.018819 -0.803765 -0.594649
vn -0.018819 -0.803765 -0.594649
vn -0.003840 -0.999992 0.000822
vn -0.003840 -0.999992 0.000822
vn -0.012125 -0.999925 -0.001966
vn -0.012125 -0.999925 -0.001966
vn -0.065429 -0.800148 0.596223
vn -0.065429 -0.800148 0.596223
vn -0.000676 -0.805424 0.592698
vn -0.000676 -0.805424 0.592698
vn -0.096875 -0.300581 0.948824
vn -0.096875 -0.300581 0.948824
vn 0.010882 -0.304878 0.952329
vn 0.010882 -0.304878 0.952329
vn -0.094836 0.300791 0.948963
vn -0.094836 0.300791 0.948963
vn 0.018255 0.304496 0.952339
vn 0.018255 0.304496 0.952339
vn 0.018820 0.803770 0.594643
vn 0.018820 0.803770 0.594643
vn -0.043151 0.807954 0.587663
vn -0.043151 0.807954 0.587663
vn 0.012125 0.999925 0.001966
vn 0.012125 0.999925 0.001966
vn 0.011390 0.999933 0.001847
vn 0.011390 0.999933 0.001847
vn 0.000677 0.805419 -0.592705
vn 0.000677 0.805419 -0.592705
vn 0.061574 0.808581 -0.585155
vn 0.061574 0.808581 -0.585155
vn -0.010880 0.304865 -0.952333
vn -0.010880 0.304865 -0.952333
vn 0.088557 0.308380 -0.947132
vn 0.088557 0.308380 -0.947132
vn -0.018251 -0.304484 -0.952343
vn -0.018251 -0.304484 -0.952343
vn 0.081523 -0.308232 -0.947812
vn 0.081523 -0.308232 -0.947812
vn -0.018819 -0.803765 -0.594649
vn -0.018819 -0.803765 -0.594649
vn 0.043154 -0.807944 -0.587676
vn 0.043154 -0.807944 -0.587676
vn -0.012125 -0.999925 -0.001966
vn -0.012125 -0.999925 -0.001966
vn -0.011390 -0.999933 -0.001847
vn -0.011390 -0.999933 -0.001847
vn -0.000676 -0.805424 0.592698
vn -0.000676 -0.805424 0.592698
vn -0.061573 -0.808589 0.585143
vn -0.061573 -0.808589 0.585143
vn 0.010882 -0.304878 0.952329
vn 0.010882 -0.304878 0.952329
vn -0.088556 -0.308358 0.947140
vn -0.088556 -0.308358 0.947140
vn 0.018255 0.304496 0.952339
vn 0.018255 0.304496 0.952339
vn -0.081521 0.308210 0.947819
vn -0.081521 0.308210 0.947819
vn -0.043151 0.807954 0.587663
vn -0.043151 0.807954 0.587663
vn -0.125248 0.808617 0.574849
vn -0.125248 0.808617 0.574849
vn 0.011390 0.999933 0.001847
vn 0.011390 0.999933 0.001847
vn 0.009006 0.999958 0.001460
vn 0.009006 0.999958 0.001460
vn 0.061574 0.808581 -0.585155
vn 0.061574 0.808581 -0.585155
vn 0.139747 0.808146 -0.572163
vn 0.139747 0.808146 -0.572163
vn 0.088557 0.308380 -0.947132
vn 0.088557 0.308380 -0.947132
vn 0.216843 0.308355 -0.926227
vn 0.216843 0.308355 -0.926227
vn 0.081523 -0.308232 -0.947812
vn 0.081523 -0.308232 -0.947812
vn 0.211350 -0.308468 -0.927458
vn 0.211350 -0.308468 -0.927458
vn 0.043154 -0.807944 -0.587676
vn 0.043154 -0.807944 -0.587676
vn 0.125252 -0.808611 -0.574857
vn 0.125252 -0.808611 -0.574857
vn -0.011390 -0.999933 -0.001847
vn -0.011390 -0.999933 -0.001847
vn -0.009006 -0.999958 -0.001460
vn -0.009006 -0.999958 -0.001460
vn -0.061573 -0.808589 0.585143
vn -0.061573 -0.808589 0.585143
vn -0.139743 -0.808152 0.572156
vn -0.139743 -0.808152 0.572156
vn -0.088556 -0.308358 0.947140
vn -0.088556 -0.308358 0.947140
vn -0.216846 -0.308313 0.926240
vn -0.216846 -0.308313 0.926240
vn -0.081521 0.308210 0.947819
vn -0.081521 0.308210 0.947819
vn -0.211355 0.308423 0.927472
vn -0.211355 0.308423 0.927472
vn -0.125248 0.808617 0.574849
vn -0.125248 0.808617 0.574849
vn -0.157781 0.807321 0.568629
vn -0.157781 0.807321 0.568629
vn 0.009006 0.999958 0.001460
vn 0.009006 0.999958 0.001460
vn 0.000963 1.000000 0.000156
vn 0.000963 1.000000 0.000156
vn 0.139747 0.808146 -0.572163
vn 0.139747 0.808146 -0.572163
vn 0.159320 0.807235 -0.568321
vn 0.159320 0.807235 -0.568321
vn 0.216843 0.308355 -0.926227
vn 0.216843 0.308355 -0.926227
vn 0.255927 0.307294 -0.916554
vn 0.255927 0.307294 -0.916554
vn 0.211350 -0.308468 -0.927458
vn 0.211350 -0.308468 -0.927458
vn 0.255352 -0.307313 -0.916708
vn 0.255352 -0.307313 -0.916708
vn 0.125252 -0.808611 -0.574857
vn 0.125252 -0.808611 -0.574857
vn 0.157778 -0.807320 -0.568631
vn 0.157778 -0.807320 -0.568631
vn -0.009006 -0.999958 -0.001460
vn -0.009006 -0.999958 -0.001460
vn -0.000963 -1.000000 -0.000156
vn -0.000963 -1.000000 -0.000156
vn -0.139743 -0.808152 0.572156
vn -0.139743 -0.808152 0.572156
vn -0.159321 -0.807236 0.568320
vn -0.159321 -0.807236 0.568320
vn -0.216846 -0.308313 0.926240
vn -0.216846 -0.308313 0.926240
vn -0.255932 -0.307250 0.916568
vn -0.255932 -0.307250 0.916568
vn -0.211355 0.308423 0.927472
vn -0.211355 0.308423 0.927472
vn -0.255356 0.307269 0.916722
vn -0.255356 0.307269 0.916722
vn -0.157781 0.807321 0.568629
vn -0.157781 0.807321 0.568629
vn -0.171941 0.806476 0.565715
vn -0.171941 0.806476 0.565715
vn 0.000963 1.000000 0.000156
vn 0.000963 1.000000 0.000156
vn 0.000000 1.000000 0.000000
vn 0.000000 1.000000 0.000000
vn 0.159320 0.807235 -0.568321
vn 0.159320 0.807235 -0.568321
vn 0.171940 0.806475 -0.565717
vn 0.171940 0.806475 -0.565717
vn 0.255927 0.307294 -0.916554
vn 0.255927 0.307294 -0.916554
vn 0.276798 0.306505 -0.910735
vn 0.276798 0.306505 -0.910735
vn 0.255352 -0.307313 -0.916708
vn 0.255352 -0.307313 -0.916708
vn 0.276799 -0.306498 -0.910737
vn 0.276799 -0.306498 -0.910737
vn 0.157778 -0.807320 -0.568631
vn 0.157778 -0.807320 -0.568631
vn 0.171940 -0.806476 -0.565715
vn 0.171940 -0.806476 -0.565715
vn -0.000963 -1.000000 -0.000156
vn -0.000963 -1.000000 -0.000156
vn 0.000000 -1.000000 0.000000
vn 0.000000 -1.000000 0.000000
vn -0.159321 -0.807236 0.568320
vn -0.159321 -0.807236 0.568320
vn -0.171942 -0.806474 0.565716
vn -0.171942 -0.806474 0.565716
vn -0.255932 -0.307250 0.916568
vn -0.255932 -0.307250 0.916568
vn -0.276798 -0.306498 0.910737
vn -0.276798 -0.306498 0.910737
vn -0.255356 0.307269 0.916722
vn -0.255356 0.307269 0.916722
vn -0.276798 0.306498 0.910737
vn -0.276798 0.306498 0.910737
vn -0.171941 0.806476 0.565715
vn -0.171941 0.806476 0.565715
vn -0.100458 0.808998 0.579164
vn -0.100458 0.808998 0.579164
vn 0.000000 1.000000 0.000000
vn 0.000000 1.000000 0.000000
vn 0.000000 1.000000 0.000000
vn 0.000000 1.000000 0.000000
vn 0.171940 0.806475 -0.565717
vn 0.171940 0.806475 -0.565717
vn 0.100459 0.808997 -0.579164
vn 0.100459 0.808997 -0.579164
vn 0.276798 0.306505 -0.910735
vn 0.276798 0.306505 -0.910735
vn 0.162440 0.308992 -0.937090
vn 0.162440 0.308992 -0.937090
vn 0.276799 -0.306498 -0.910737
vn 0.276799 -0.306498 -0.910737
vn 0.162439 -0.308987 -0.937092
vn 0.162439 -0.308987 -0.937092
vn 0.171940 -0.806476 -0.565715
vn 0.171940 -0.806476 -0.565715
vn 0.100459 -0.808998 -0.579164
vn 0.100459 -0.808998 -0.579164
vn 0.000000 -1.000000 0.000000
vn 0.000000 -1.000000 0.000000
vn 0.000000 -1.000000 0.000000
vn 0.000000 -1.000000 0.000000
vn -0.171942 -0.806474 0.565716
vn -0.171942 -0.806474 0.565716
vn -0.100457 -0.808998 0.579164
vn -0.100457 -0.808998 0.579164
vn -0.276798 -0.306498 0.910737
vn -0.276798 -0.306498 0.910737
vn -0.162437 -0.309007 0.937085
vn -0.162437 -0.309007 0.937085
vn -0.276798 0.306498 0.910737
vn -0.276798 0.306498 0.910737
vn -0.162436 0.309007 0.937086
vn -0.162436 0.309007 0.937086
vn -0.100458 0.808998 0.579164
vn -0.100458 0.808998 0.579164
vn -0.023114 0.806937 0.590185
vn -0.023114 0.806937 0.590185
vn 0.000000 1.000000 0.000000
vn 0.000000 1.000000 0.000000
vn 0.000000 1.000000 0.000000
vn 0.000000 1.000000 0.000000
vn 0.100459 0.808997 -0.579164
vn 0.100459 0.808997 -0.579164
vn 0.023114 0.806937 -0.590186
vn 0.023114 0.806937 -0.590186
vn 0.162440 0.308992 -0.937090
vn 0.162440 0.308992 -0.937090
vn 0.037248 0.306942 -0.950999
vn 0.037248 0.306942 -0.950999
vn 0.162439 -0.308987 -0.937092
vn 0.162439 -0.308987 -0.937092
vn 0.037248 -0.306941 -0.950999
vn 0.037248 -0.306941 -0.950999
vn 0.100459 -0.808998 -0.579164
vn 0.100459 -0.808998 -0.579164
vn 0.023114 -0.806937 -0.590185
vn 0.023114 -0.806937 -0.590185
vn 0.000000 -1.000000 0.000000
vn 0.000000 -1.000000 0.000000
vn 0.000000 -1.000000 0.000000
vn 0.000000 -1.000000 0.000000
vn -0.100457 -0.808998 0.579164
vn -0.100457 -0.808998 0.579164
vn -0.023112 -0.806937 0.590186
vn -0.023112 -0.806937 0.590186
vn -0.162437 -0.309007 0.937085
vn -0.162437 -0.309007 0.937085
vn -0.037248 -0.306940 0.951000
vn -0.037248 -0.306940 0.951000
vn -0.162436 0.309007 0.937086
vn -0.162436 0.309007 0.937086
vn -0.037248 0.306940 0.951000
vn -0.037248 0.306940 0.951000
vn 0.769449 -0.000024 0.638708
vn 0.769459 -0.000032 0.638696
vn 0.769451 -0.000005 0.638706
vn 0.769449 -0.000008 0.638708
vn 0.769449 -0.000024 0.638708
vn 0.769451 -0.000005 0.638706
vn 0.769466 0.000000 0.638688
vn 0.769449 -0.000008 0.638708
vn 0.769451 -0.000005 0.638706
vn 0.769452 0.000000 0.638705
vn 0.769466 0.000000 0.638688
vn 0.769451 -0.000005 0.638706
vn 0.769459 -0.000008 0.638696
vn 0.769452 0.000000 0.638705
vn 0.769451 -0.000005 0.638706
vn 0.769449 0.000000 0.638708
vn 0.769459 -0.000008 0.638696
vn 0.769451 -0.000005 0.638706
vn 0.769436 0.000024 0.638723
vn 0.769449 0.000000 0.638708
vn 0.769451 -0.000005 0.638706
vn 0.769446 0.000016 0.638712
vn 0.769436 0.000024 0.638723
vn 0.769451 -0.000005 0.638706
vn 0.769445 -0.000016 0.638713
vn 0.769446 0.000016 0.638712
vn 0.769451 -0.000005 0.638706
vn 0.769459 -0.000032 0.638696
vn 0.769445 -0.000016 0.638713
vn 0.769451 -0.000005 0.638706
vn -0.987109 0.000032 -0.160053
vn -0.987107 0.000040 -0.160064
vn -0.987107 0.000002 -0.160065
vn -0.987107 0.000040 -0.160064
vn -0.987106 0.000024 -0.160069
vn -0.987107 0.000002 -0.160065
vn -0.987106 0.000024 -0.160069
vn -0.987106 0.000048 -0.160071
vn -0.987107 0.000002 -0.160065
vn -0.987106 0.000048 -0.160071
vn -0.987104 0.000000 -0.160081
vn -0.987107 0.000002 -0.160065
vn -0.987104 0.000000 -0.160081
vn -0.987105 -0.000048 -0.160076
vn -0.987107 0.000002 -0.160065
vn -0.987105 -0.000048 -0.160076
vn -0.987106 -0.000024 -0.160069
vn -0.987107 0.000002 -0.160065
vn -0.987106 -0.000024 -0.160069
vn -0.987107 -0.000032 -0.160064
vn -0.987107 0.000002 -0.160065
vn -0.987107 -0.000032 -0.160064
vn -0.987109 -0.000024 -0.160052
vn -0.987107 0.000002 -0.160065
vn -0.987109 -0.000024 -0.160052
vn -0.987109 0.000000 -0.160049
vn -0.987107 0.000002 -0.160065
vn -0.987109 0.000000 -0.160049
vn -0.987109 0.000032 -0.160053
vn -0.987107 0.000002 -0.160065
vn 0.000000 1.000000 0.000000
vn 0.000000 1.000000 0.000000
vn 0.000000 1.000000 0.000000
vn 0.000000 1.000000 0.000000
s off
g Ivy01_Low
usemtl lambert2SG
f 1/1/1 2/2/2 12/3/3 11/4/4
f 2/2/5 3/5/6 13/6/7 12/3/8
f 3/5/9 4/7/10 14/8/11 13/6/12
f 4/7/13 5/9/14 15/10/15 14/8/16
f 5/9/17 6/11/18 16/12/19 15/10/20
f 6/11/21 7/13/22 17/14/23 16/12/24
f 7/13/25 8/15/26 18/16/27 17/14/28
f 8/15/29 9/17/30 19/18/31 18/16/32
f 9/17/33 10/19/34 20/20/35 19/18/36
f 10/19/37 1/21/38 11/22/39 20/20/40
f 11/4/41 12/3/42 22/23/43 21/24/44
f 12/3/45 13/6/46 23/25/47 22/23/48
f 13/6/49 14/8/50 24/26/51 23/25/52
f 14/8/53 15/10/54 25/27/55 24/26/56
f 15/10/57 16/12/58 26/28/59 25/27/60
f 16/12/61 17/14/62 27/29/63 26/28/64
f 17/14/65 18/16/66 28/30/67 27/29/68
f 18/16/69 19/18/70 29/31/71 28/30/72
f 19/18/73 20/20/74 30/32/75 29/31/76
f 20/20/77 11/22/78 21/33/79 30/32/80
f 21/24/81 22/23/82 32/34/83 31/35/84
f 22/23/85 23/25/86 33/36/87 32/34/88
f 23/25/89 24/26/90 34/37/91 33/36/92
f 24/26/93 25/27/94 35/38/95 34/37/96
f 25/27/97 26/28/98 36/39/99 35/38/100
f 26/28/101 27/29/102 37/40/103 36/39/104
f 27/29/105 28/30/106 38/41/107 37/40/108
f 28/30/109 29/31/110 39/42/111 38/41/112
f 29/31/113 30/32/114 40/43/115 39/42/116
f 30/32/117 21/33/118 31/44/119 40/43/120
f 31/35/121 32/34/122 42/45/123 41/46/124
f 32/34/125 33/36/126 43/47/127 42/45/128
f 33/36/129 34/37/130 44/48/131 43/47/132
f 34/37/133 35/38/134 45/49/135 44/48/136
f 35/38/137 36/39/138 46/50/139 45/49/140
f 36/39/141 37/40/142 47/51/143 46/50/144
f 37/40/145 38/41/146 48/52/147 47/51/148
f 38/41/149 39/42/150 49/53/151 48/52/152
f 39/42/153 40/43/154 50/54/155 49/53/156
f 40/43/157 31/44/158 41/55/159 50/54/160
f 41/46/161 42/45/162 52/56/163 51/57/164
f 42/45/165 43/47/166 53/58/167 52/56/168
f 43/47/169 44/48/170 54/59/171 53/58/172
f 44/48/173 45/49/174 55/60/175 54/59/176
f 45/49/177 46/50/178 56/61/179 55/60/180
f 46/50/181 47/51/182 57/62/183 56/61/184
f 47/51/185 48/52/186 58/63/187 57/62/188
f 48/52/189 49/53/190 59/64/191 58/63/192
f 49/53/193 50/54/194 60/65/195 59/64/196
f 50/54/197 41/55/198 51/66/199 60/65/200
f 51/57/201 52/56/202 62/67/203 61/68/204
f 52/56/205 53/58/206 63/69/207 62/67/208
f 53/58/209 54/59/210 64/70/211 63/69/212
f 54/59/213 55/60/214 65/71/215 64/70/216
f 55/60/217 56/61/218 66/72/219 65/71/220
f 56/61/221 57/62/222 67/73/223 66/72/224
f 57/62/225 58/63/226 68/74/227 67/73/228
f 58/63/229 59/64/230 69/75/231 68/74/232
f 59/64/233 60/65/234 70/76/235 69/75/236
f 60/65/237 51/66/238 61/77/239 70/76/240
f 61/68/241 62/67/242 72/78/243 71/79/244
f 62/67/245 63/69/246 73/80/247 72/78/248
f 63/69/249 64/70/250 74/81/251 73/80/252
f 64/70/253 65/71/254 75/82/255 74/81/256
f 65/71/257 66/72/258 76/83/259 75/82/260
f 66/72/261 67/73/262 77/84/263 76/83/264
f 67/73/265 68/74/266 78/85/267 77/84/268
f 68/74/269 69/75/270 79/86/271 78/85/272
f 69/75/273 70/76/274 80/87/275 79/86/276
f 70/76/277 61/77/278 71/88/279 80/87/280
f 71/79/281 72/78/282 82/89/283 81/90/284
f 72/78/285 73/80/286 83/91/287 82/89/288
f 73/80/289 74/81/290 84/92/291 83/91/292
f 74/81/293 75/82/294 85/93/295 84/92/296
f 75/82/297 76/83/298 86/94/299 85/93/300
f 76/83/301 77/84/302 87/95/303 86/94/304
f 77/84/305 78/85/306 88/96/307 87/95/308
f 78/85/309 79/86/310 89/97/311 88/96/312
f 79/86/313 80/87/314 90/98/315 89/97/316
f 80/87/317 71/88/318 81/99/319 90/98/320
f 2/100/321 1/101/322 91/102/323
f 3/103/324 2/100/325 91/102/326
f 4/104/327 3/103/328 91/102/329
f 5/105/330 4/104/331 91/102/332
f 6/106/333 5/105/334 91/102/335
f 7/107/336 6/106/337 91/102/338
f 8/108/339 7/107/340 91/102/341
f 9/109/342 8/108/343 91/102/344
f 10/110/345 9/109/346 91/102/347
f 1/101/348 10/110/349 91/102/350
f 81/111/351 82/112/352 92/113/353
f 82/112/354 83/114/355 92/113/356
f 83/114/357 84/115/358 92/113/359
f 84/115/360 85/116/361 92/113/362
f 85/116/363 86/117/364 92/113/365
f 86/117/366 87/118/367 92/113/368
f 87/118/369 88/119/370 92/113/371
f 88/119/372 89/120/373 92/113/374
f 89/120/375 90/121/376 92/113/377
f 90/121/378 81/111/379 92/113/380
usemtl blinn1SG
f 93/122/381 94/123/382 96/124/383 95/125/384
